<svg width="262" height="87" viewBox="0 0 262 87" fill="none" xmlns="http://www.w3.org/2000/svg">
<path d="M14.592 62V25.648H0.256V17.2H39.296V25.648H24.96V62H14.592ZM63.5405 62V55.28L62.9005 53.808V41.776C62.9005 39.6427 62.2392 37.9787 60.9165 36.784C59.6365 35.5893 57.6525 34.992 54.9645 34.992C53.1298 34.992 51.3165 35.2907 49.5245 35.888C47.7752 36.4427 46.2818 37.2107 45.0445 38.192L41.4605 31.216C43.3378 29.8933 45.5992 28.8693 48.2445 28.144C50.8898 27.4187 53.5778 27.056 56.3085 27.056C61.5565 27.056 65.6312 28.2933 68.5325 30.768C71.4338 33.2427 72.8845 37.104 72.8845 42.352V62H63.5405ZM53.0445 62.512C50.3565 62.512 48.0525 62.064 46.1325 61.168C44.2125 60.2293 42.7405 58.9707 41.7165 57.392C40.6925 55.8133 40.1805 54.0427 40.1805 52.08C40.1805 50.032 40.6712 48.24 41.6525 46.704C42.6765 45.168 44.2765 43.9733 46.4525 43.12C48.6285 42.224 51.4658 41.776 54.9645 41.776H64.1165V47.6H56.0525C53.7058 47.6 52.0845 47.984 51.1885 48.752C50.3352 49.52 49.9085 50.48 49.9085 51.632C49.9085 52.912 50.3992 53.936 51.3805 54.704C52.4045 55.4293 53.7912 55.792 55.5405 55.792C57.2045 55.792 58.6978 55.408 60.0205 54.64C61.3432 53.8293 62.3032 52.656 62.9005 51.12L64.4365 55.728C63.7112 57.9467 62.3885 59.632 60.4685 60.784C58.5485 61.936 56.0738 62.512 53.0445 62.512ZM93.5045 62.512C90.5605 62.512 87.7232 62.1707 84.9925 61.488C82.3045 60.7627 80.1712 59.8667 78.5925 58.8L81.9205 51.632C83.4992 52.6133 85.3552 53.424 87.4885 54.064C89.6645 54.6613 91.7978 54.96 93.8885 54.96C96.1925 54.96 97.8138 54.6827 98.7525 54.128C99.7338 53.5733 100.225 52.8053 100.225 51.824C100.225 51.0133 99.8405 50.416 99.0725 50.032C98.3472 49.6053 97.3658 49.2853 96.1285 49.072C94.8912 48.8587 93.5258 48.6453 92.0325 48.432C90.5818 48.2187 89.1098 47.9413 87.6165 47.6C86.1232 47.216 84.7578 46.6613 83.5205 45.936C82.2832 45.2107 81.2805 44.2293 80.5125 42.992C79.7872 41.7547 79.4245 40.1547 79.4245 38.192C79.4245 36.016 80.0432 34.096 81.2805 32.432C82.5605 30.768 84.3952 29.4667 86.7845 28.528C89.1738 27.5467 92.0325 27.056 95.3605 27.056C97.7072 27.056 100.097 27.312 102.529 27.824C104.961 28.336 106.987 29.0827 108.609 30.064L105.281 37.168C103.617 36.1867 101.931 35.5253 100.225 35.184C98.5605 34.8 96.9392 34.608 95.3605 34.608C93.1418 34.608 91.5205 34.9067 90.4965 35.504C89.4725 36.1013 88.9605 36.8693 88.9605 37.808C88.9605 38.6613 89.3232 39.3013 90.0485 39.728C90.8165 40.1547 91.8192 40.496 93.0565 40.752C94.2938 41.008 95.6378 41.2427 97.0885 41.456C98.5818 41.6267 100.075 41.904 101.569 42.288C103.062 42.672 104.406 43.2267 105.601 43.952C106.838 44.6347 107.841 45.5947 108.609 46.832C109.377 48.0267 109.761 49.6053 109.761 51.568C109.761 53.7013 109.121 55.6 107.841 57.264C106.561 58.8853 104.705 60.1653 102.273 61.104C99.8832 62.0427 96.9605 62.512 93.5045 62.512ZM124.177 54.96L124.433 42.8L140.497 27.568H152.401L136.977 43.248L131.793 47.472L124.177 54.96ZM115.921 62V14.512H125.905V62H115.921ZM141.585 62L129.937 47.536L136.209 39.792L153.681 62H141.585ZM160.46 74.928C158.668 74.928 156.897 74.6507 155.148 74.096C153.399 73.5413 151.969 72.7733 150.86 71.792L154.508 64.688C155.276 65.3707 156.151 65.904 157.132 66.288C158.156 66.672 159.159 66.864 160.14 66.864C161.548 66.864 162.657 66.5227 163.468 65.84C164.321 65.2 165.089 64.112 165.772 62.576L167.564 58.352L168.332 57.264L180.684 27.568H190.284L174.732 64.112C173.623 66.8853 172.343 69.0613 170.892 70.64C169.484 72.2187 167.905 73.328 166.156 73.968C164.449 74.608 162.551 74.928 160.46 74.928ZM166.348 63.344L150.988 27.568H161.292L173.196 56.368L166.348 63.344Z" fill="white"/>
<path d="M248.333 21.75L210.75 61.625L193.667 43.5" stroke="#F3F3F3" stroke-width="11" stroke-linecap="round" stroke-linejoin="round"/>
</svg>
